<mxfile host="Electron" agent="Mozilla/5.0 (Macintosh; Intel Mac OS X 10_15_7) AppleWebKit/537.36 (KHTML, like Gecko) draw.io/28.0.6 Chrome/138.0.7204.100 Electron/37.2.3 Safari/537.36" version="28.0.6" pages="2">
  <diagram name="Page-1" id="o42AoNnHxabg2RZjM1M9">
    <mxGraphModel dx="1450" dy="1195" grid="1" gridSize="10" guides="1" tooltips="1" connect="1" arrows="1" fold="1" page="1" pageScale="1" pageWidth="827" pageHeight="1169" math="0" shadow="0">
      <root>
        <mxCell id="0" />
        <mxCell id="1" parent="0" />
        <mxCell id="LCJjFEMlVOXkCbty422d-1" value="OpenShift Node" style="rounded=0;whiteSpace=wrap;html=1;fillColor=#f5f5f5;fontColor=#333333;strokeColor=#666666;verticalAlign=bottom;" parent="1" vertex="1">
          <mxGeometry x="10" y="10" width="640" height="270" as="geometry" />
        </mxCell>
        <mxCell id="LCJjFEMlVOXkCbty422d-2" value="enp80s0f0" style="rounded=0;whiteSpace=wrap;html=1;fillColor=#d5e8d4;strokeColor=#82b366;verticalAlign=middle;" parent="1" vertex="1">
          <mxGeometry x="10" y="70" width="70" height="30" as="geometry" />
        </mxCell>
        <mxCell id="LCJjFEMlVOXkCbty422d-19" style="edgeStyle=orthogonalEdgeStyle;rounded=0;orthogonalLoop=1;jettySize=auto;html=1;exitX=1;exitY=0.5;exitDx=0;exitDy=0;entryX=0;entryY=0.5;entryDx=0;entryDy=0;endArrow=none;endFill=0;" parent="1" source="LCJjFEMlVOXkCbty422d-2" target="LCJjFEMlVOXkCbty422d-16" edge="1">
          <mxGeometry relative="1" as="geometry">
            <mxPoint x="280.0000000000002" y="85.00000000000011" as="sourcePoint" />
          </mxGeometry>
        </mxCell>
        <mxCell id="LCJjFEMlVOXkCbty422d-23" value="" style="edgeStyle=orthogonalEdgeStyle;rounded=0;orthogonalLoop=1;jettySize=auto;html=1;entryX=0;entryY=0.5;entryDx=0;entryDy=0;endArrow=none;endFill=0;" parent="1" source="LCJjFEMlVOXkCbty422d-16" target="LCJjFEMlVOXkCbty422d-20" edge="1">
          <mxGeometry relative="1" as="geometry" />
        </mxCell>
        <mxCell id="LCJjFEMlVOXkCbty422d-16" value="br-ex" style="rounded=0;whiteSpace=wrap;html=1;verticalAlign=middle;fillColor=#dae8fc;strokeColor=#6c8ebf;" parent="1" vertex="1">
          <mxGeometry x="310" y="70" width="70" height="30" as="geometry" />
        </mxCell>
        <mxCell id="LCJjFEMlVOXkCbty422d-17" value="OVN componets" style="rounded=0;whiteSpace=wrap;html=1;verticalAlign=middle;fillColor=#dae8fc;strokeColor=#6c8ebf;" parent="1" vertex="1">
          <mxGeometry x="480" y="290" width="170" height="30" as="geometry" />
        </mxCell>
        <mxCell id="LCJjFEMlVOXkCbty422d-30" value="" style="edgeStyle=orthogonalEdgeStyle;rounded=0;orthogonalLoop=1;jettySize=auto;html=1;entryX=0;entryY=0.5;entryDx=0;entryDy=0;endArrow=none;endFill=0;" parent="1" source="LCJjFEMlVOXkCbty422d-20" target="LCJjFEMlVOXkCbty422d-25" edge="1">
          <mxGeometry relative="1" as="geometry" />
        </mxCell>
        <mxCell id="LCJjFEMlVOXkCbty422d-20" value="Localnet" style="rounded=0;whiteSpace=wrap;html=1;verticalAlign=middle;fillColor=#dae8fc;strokeColor=#6c8ebf;" parent="1" vertex="1">
          <mxGeometry x="429" y="50" width="80" height="30" as="geometry" />
        </mxCell>
        <mxCell id="LCJjFEMlVOXkCbty422d-27" value="" style="edgeStyle=orthogonalEdgeStyle;rounded=0;orthogonalLoop=1;jettySize=auto;html=1;endArrow=none;endFill=0;" parent="1" source="LCJjFEMlVOXkCbty422d-21" target="LCJjFEMlVOXkCbty422d-26" edge="1">
          <mxGeometry relative="1" as="geometry" />
        </mxCell>
        <mxCell id="LCJjFEMlVOXkCbty422d-21" value="Localnet with VLAN 1004" style="rounded=0;whiteSpace=wrap;html=1;verticalAlign=middle;fillColor=#dae8fc;strokeColor=#6c8ebf;" parent="1" vertex="1">
          <mxGeometry x="429" y="90" width="80" height="30" as="geometry" />
        </mxCell>
        <mxCell id="LCJjFEMlVOXkCbty422d-24" value="" style="edgeStyle=orthogonalEdgeStyle;rounded=0;orthogonalLoop=1;jettySize=auto;html=1;entryX=0;entryY=0.5;entryDx=0;entryDy=0;exitX=1;exitY=0.5;exitDx=0;exitDy=0;endArrow=none;endFill=0;" parent="1" source="LCJjFEMlVOXkCbty422d-16" target="LCJjFEMlVOXkCbty422d-21" edge="1">
          <mxGeometry relative="1" as="geometry">
            <mxPoint x="420" y="80" as="sourcePoint" />
            <mxPoint x="469" y="60" as="targetPoint" />
          </mxGeometry>
        </mxCell>
        <mxCell id="LCJjFEMlVOXkCbty422d-25" value="VM" style="rounded=0;whiteSpace=wrap;html=1;verticalAlign=middle;" parent="1" vertex="1">
          <mxGeometry x="550" y="50" width="80" height="30" as="geometry" />
        </mxCell>
        <mxCell id="LCJjFEMlVOXkCbty422d-26" value="VM" style="rounded=0;whiteSpace=wrap;html=1;verticalAlign=middle;" parent="1" vertex="1">
          <mxGeometry x="550" y="90" width="80" height="30" as="geometry" />
        </mxCell>
        <mxCell id="LCJjFEMlVOXkCbty422d-43" value="" style="edgeStyle=orthogonalEdgeStyle;rounded=0;orthogonalLoop=1;jettySize=auto;html=1;entryX=0;entryY=0.5;entryDx=0;entryDy=0;endArrow=none;endFill=0;" parent="1" source="LCJjFEMlVOXkCbty422d-36" target="LCJjFEMlVOXkCbty422d-39" edge="1">
          <mxGeometry relative="1" as="geometry" />
        </mxCell>
        <mxCell id="LCJjFEMlVOXkCbty422d-36" value="net-attach-def" style="rounded=0;whiteSpace=wrap;html=1;verticalAlign=middle;fillColor=#e1d5e7;strokeColor=#9673a6;" parent="1" vertex="1">
          <mxGeometry x="378" y="180" width="130" height="30" as="geometry" />
        </mxCell>
        <mxCell id="LCJjFEMlVOXkCbty422d-39" value="VM" style="rounded=0;whiteSpace=wrap;html=1;verticalAlign=middle;" parent="1" vertex="1">
          <mxGeometry x="560" y="180" width="80" height="30" as="geometry" />
        </mxCell>
        <mxCell id="bePPa5DEVA8L36b1XGJz-1" value="" style="edgeStyle=orthogonalEdgeStyle;rounded=0;orthogonalLoop=1;jettySize=auto;html=1;endArrow=none;endFill=0;" edge="1" parent="1" source="LCJjFEMlVOXkCbty422d-52" target="3ah6_hqZ7BxjHkauWzX_-3">
          <mxGeometry relative="1" as="geometry" />
        </mxCell>
        <mxCell id="LCJjFEMlVOXkCbty422d-52" value="enp80s0f1" style="rounded=0;whiteSpace=wrap;html=1;fillColor=#d5e8d4;strokeColor=#82b366;verticalAlign=middle;" parent="1" vertex="1">
          <mxGeometry x="10" y="208" width="70" height="30" as="geometry" />
        </mxCell>
        <mxCell id="bePPa5DEVA8L36b1XGJz-3" value="" style="edgeStyle=orthogonalEdgeStyle;rounded=0;orthogonalLoop=1;jettySize=auto;html=1;endArrow=none;endFill=0;" edge="1" parent="1" source="3ah6_hqZ7BxjHkauWzX_-3" target="3ah6_hqZ7BxjHkauWzX_-6">
          <mxGeometry relative="1" as="geometry">
            <Array as="points">
              <mxPoint x="260" y="223" />
              <mxPoint x="260" y="195" />
            </Array>
          </mxGeometry>
        </mxCell>
        <mxCell id="3ah6_hqZ7BxjHkauWzX_-3" value="enp80s0f1.2003" style="rounded=0;whiteSpace=wrap;html=1;fillColor=#d5e8d4;strokeColor=#82b366;verticalAlign=middle;" parent="1" vertex="1">
          <mxGeometry x="130" y="208" width="110" height="30" as="geometry" />
        </mxCell>
        <mxCell id="3ah6_hqZ7BxjHkauWzX_-8" value="" style="edgeStyle=orthogonalEdgeStyle;rounded=0;orthogonalLoop=1;jettySize=auto;html=1;entryX=0;entryY=0.5;entryDx=0;entryDy=0;endArrow=none;endFill=0;" parent="1" source="3ah6_hqZ7BxjHkauWzX_-6" target="LCJjFEMlVOXkCbty422d-36" edge="1">
          <mxGeometry relative="1" as="geometry" />
        </mxCell>
        <mxCell id="3ah6_hqZ7BxjHkauWzX_-6" value="br-vlan-2003" style="rounded=0;whiteSpace=wrap;html=1;verticalAlign=middle;fillColor=#e1d5e7;strokeColor=#9673a6;" parent="1" vertex="1">
          <mxGeometry x="276" y="180" width="80" height="30" as="geometry" />
        </mxCell>
        <mxCell id="3ah6_hqZ7BxjHkauWzX_-7" value="" style="edgeStyle=orthogonalEdgeStyle;rounded=0;orthogonalLoop=1;jettySize=auto;html=1;entryX=0;entryY=0.5;entryDx=0;entryDy=0;endArrow=none;endFill=0;exitX=1;exitY=0.5;exitDx=0;exitDy=0;" parent="1" source="3ah6_hqZ7BxjHkauWzX_-3" target="3ah6_hqZ7BxjHkauWzX_-10" edge="1">
          <mxGeometry relative="1" as="geometry">
            <mxPoint x="100" y="210" as="sourcePoint" />
            <mxPoint x="140" y="255" as="targetPoint" />
            <Array as="points">
              <mxPoint x="260" y="223" />
              <mxPoint x="260" y="247" />
            </Array>
          </mxGeometry>
        </mxCell>
        <mxCell id="3ah6_hqZ7BxjHkauWzX_-10" value="MetalLB Speaker Pods" style="rounded=0;whiteSpace=wrap;html=1;verticalAlign=middle;fillColor=#ffe6cc;strokeColor=#d79b00;" parent="1" vertex="1">
          <mxGeometry x="470" y="232" width="170" height="30" as="geometry" />
        </mxCell>
        <mxCell id="3ah6_hqZ7BxjHkauWzX_-38" value="Linux Kernel components" style="rounded=0;whiteSpace=wrap;html=1;verticalAlign=middle;fillColor=#e1d5e7;strokeColor=#9673a6;" parent="1" vertex="1">
          <mxGeometry x="299" y="290" width="171" height="30" as="geometry" />
        </mxCell>
      </root>
    </mxGraphModel>
  </diagram>
  <diagram id="KofiDMs-Aymx-5v4Tip1" name="Page-2">
    <mxGraphModel dx="1450" dy="1195" grid="1" gridSize="10" guides="1" tooltips="1" connect="1" arrows="1" fold="1" page="1" pageScale="1" pageWidth="827" pageHeight="1169" math="0" shadow="0">
      <root>
        <mxCell id="0" />
        <mxCell id="1" parent="0" />
        <mxCell id="Jws28-3J11vp6yKOzoiw-1" value="Linux Kernel components" style="rounded=0;whiteSpace=wrap;html=1;verticalAlign=middle;fillColor=#e1d5e7;strokeColor=#9673a6;" vertex="1" parent="1">
          <mxGeometry x="290" y="290" width="171" height="30" as="geometry" />
        </mxCell>
        <mxCell id="Jws28-3J11vp6yKOzoiw-2" value="OpenShift Node" style="rounded=0;whiteSpace=wrap;html=1;fillColor=#f5f5f5;fontColor=#333333;strokeColor=#666666;verticalAlign=bottom;" vertex="1" parent="1">
          <mxGeometry x="10" y="10" width="640" height="270" as="geometry" />
        </mxCell>
        <mxCell id="Jws28-3J11vp6yKOzoiw-3" value="enp80s0f0" style="rounded=0;whiteSpace=wrap;html=1;fillColor=#d5e8d4;strokeColor=#82b366;verticalAlign=middle;" vertex="1" parent="1">
          <mxGeometry x="10" y="70" width="70" height="30" as="geometry" />
        </mxCell>
        <mxCell id="Jws28-3J11vp6yKOzoiw-4" style="edgeStyle=orthogonalEdgeStyle;rounded=0;orthogonalLoop=1;jettySize=auto;html=1;exitX=1;exitY=0.5;exitDx=0;exitDy=0;entryX=0;entryY=0.5;entryDx=0;entryDy=0;endArrow=none;endFill=0;" edge="1" parent="1" source="Jws28-3J11vp6yKOzoiw-3" target="Jws28-3J11vp6yKOzoiw-6">
          <mxGeometry relative="1" as="geometry">
            <mxPoint x="280.0000000000002" y="85.00000000000011" as="sourcePoint" />
          </mxGeometry>
        </mxCell>
        <mxCell id="Jws28-3J11vp6yKOzoiw-5" value="" style="edgeStyle=orthogonalEdgeStyle;rounded=0;orthogonalLoop=1;jettySize=auto;html=1;entryX=0;entryY=0.5;entryDx=0;entryDy=0;endArrow=none;endFill=0;" edge="1" parent="1" source="Jws28-3J11vp6yKOzoiw-6" target="Jws28-3J11vp6yKOzoiw-9">
          <mxGeometry relative="1" as="geometry" />
        </mxCell>
        <mxCell id="Jws28-3J11vp6yKOzoiw-6" value="br-ex" style="rounded=0;whiteSpace=wrap;html=1;verticalAlign=middle;fillColor=#dae8fc;strokeColor=#6c8ebf;" vertex="1" parent="1">
          <mxGeometry x="310" y="70" width="70" height="30" as="geometry" />
        </mxCell>
        <mxCell id="Jws28-3J11vp6yKOzoiw-7" value="OVN componets" style="rounded=0;whiteSpace=wrap;html=1;verticalAlign=middle;fillColor=#dae8fc;strokeColor=#6c8ebf;" vertex="1" parent="1">
          <mxGeometry x="470" y="290" width="170" height="30" as="geometry" />
        </mxCell>
        <mxCell id="Jws28-3J11vp6yKOzoiw-8" value="" style="edgeStyle=orthogonalEdgeStyle;rounded=0;orthogonalLoop=1;jettySize=auto;html=1;entryX=0;entryY=0.5;entryDx=0;entryDy=0;endArrow=none;endFill=0;" edge="1" parent="1" source="Jws28-3J11vp6yKOzoiw-9" target="Jws28-3J11vp6yKOzoiw-13">
          <mxGeometry relative="1" as="geometry" />
        </mxCell>
        <mxCell id="Jws28-3J11vp6yKOzoiw-9" value="Localnet" style="rounded=0;whiteSpace=wrap;html=1;verticalAlign=middle;fillColor=#dae8fc;strokeColor=#6c8ebf;" vertex="1" parent="1">
          <mxGeometry x="429" y="50" width="80" height="30" as="geometry" />
        </mxCell>
        <mxCell id="Jws28-3J11vp6yKOzoiw-10" value="" style="edgeStyle=orthogonalEdgeStyle;rounded=0;orthogonalLoop=1;jettySize=auto;html=1;endArrow=none;endFill=0;" edge="1" parent="1" source="Jws28-3J11vp6yKOzoiw-11" target="Jws28-3J11vp6yKOzoiw-14">
          <mxGeometry relative="1" as="geometry" />
        </mxCell>
        <mxCell id="Jws28-3J11vp6yKOzoiw-11" value="Localnet with VLAN 1004" style="rounded=0;whiteSpace=wrap;html=1;verticalAlign=middle;fillColor=#dae8fc;strokeColor=#6c8ebf;" vertex="1" parent="1">
          <mxGeometry x="429" y="90" width="80" height="30" as="geometry" />
        </mxCell>
        <mxCell id="Jws28-3J11vp6yKOzoiw-12" value="" style="edgeStyle=orthogonalEdgeStyle;rounded=0;orthogonalLoop=1;jettySize=auto;html=1;entryX=0;entryY=0.5;entryDx=0;entryDy=0;exitX=1;exitY=0.5;exitDx=0;exitDy=0;endArrow=none;endFill=0;" edge="1" parent="1" source="Jws28-3J11vp6yKOzoiw-6" target="Jws28-3J11vp6yKOzoiw-11">
          <mxGeometry relative="1" as="geometry">
            <mxPoint x="420" y="80" as="sourcePoint" />
            <mxPoint x="469" y="60" as="targetPoint" />
          </mxGeometry>
        </mxCell>
        <mxCell id="Jws28-3J11vp6yKOzoiw-13" value="VM" style="rounded=0;whiteSpace=wrap;html=1;verticalAlign=middle;" vertex="1" parent="1">
          <mxGeometry x="550" y="50" width="80" height="30" as="geometry" />
        </mxCell>
        <mxCell id="Jws28-3J11vp6yKOzoiw-14" value="VM" style="rounded=0;whiteSpace=wrap;html=1;verticalAlign=middle;" vertex="1" parent="1">
          <mxGeometry x="550" y="90" width="80" height="30" as="geometry" />
        </mxCell>
        <mxCell id="Jws28-3J11vp6yKOzoiw-15" value="" style="edgeStyle=orthogonalEdgeStyle;rounded=0;orthogonalLoop=1;jettySize=auto;html=1;entryX=0;entryY=0.5;entryDx=0;entryDy=0;endArrow=none;endFill=0;" edge="1" parent="1" source="Jws28-3J11vp6yKOzoiw-16" target="Jws28-3J11vp6yKOzoiw-17">
          <mxGeometry relative="1" as="geometry" />
        </mxCell>
        <mxCell id="Jws28-3J11vp6yKOzoiw-16" value="net-attach-def&lt;div&gt;with VLAN 2003&lt;/div&gt;" style="rounded=0;whiteSpace=wrap;html=1;verticalAlign=middle;fillColor=#e1d5e7;strokeColor=#9673a6;" vertex="1" parent="1">
          <mxGeometry x="331" y="180" width="130" height="30" as="geometry" />
        </mxCell>
        <mxCell id="Jws28-3J11vp6yKOzoiw-17" value="VM" style="rounded=0;whiteSpace=wrap;html=1;verticalAlign=middle;" vertex="1" parent="1">
          <mxGeometry x="561" y="180" width="80" height="30" as="geometry" />
        </mxCell>
        <mxCell id="Jws28-3J11vp6yKOzoiw-18" value="" style="edgeStyle=orthogonalEdgeStyle;rounded=0;orthogonalLoop=1;jettySize=auto;html=1;entryX=0;entryY=0.5;entryDx=0;entryDy=0;endArrow=none;endFill=0;" edge="1" parent="1" source="Jws28-3J11vp6yKOzoiw-19" target="Jws28-3J11vp6yKOzoiw-20">
          <mxGeometry relative="1" as="geometry">
            <Array as="points">
              <mxPoint x="110" y="215" />
              <mxPoint x="110" y="235" />
            </Array>
          </mxGeometry>
        </mxCell>
        <mxCell id="Jws28-3J11vp6yKOzoiw-19" value="enp80s0f1" style="rounded=0;whiteSpace=wrap;html=1;fillColor=#d5e8d4;strokeColor=#82b366;verticalAlign=middle;" vertex="1" parent="1">
          <mxGeometry x="10" y="200" width="70" height="30" as="geometry" />
        </mxCell>
        <mxCell id="Jws28-3J11vp6yKOzoiw-20" value="enp80s0f1.2003" style="rounded=0;whiteSpace=wrap;html=1;fillColor=#d5e8d4;strokeColor=#82b366;verticalAlign=middle;" vertex="1" parent="1">
          <mxGeometry x="130" y="227" width="110" height="30" as="geometry" />
        </mxCell>
        <mxCell id="Jws28-3J11vp6yKOzoiw-21" value="" style="edgeStyle=orthogonalEdgeStyle;rounded=0;orthogonalLoop=1;jettySize=auto;html=1;entryX=0;entryY=0.5;entryDx=0;entryDy=0;endArrow=none;endFill=0;" edge="1" parent="1" source="Jws28-3J11vp6yKOzoiw-22" target="Jws28-3J11vp6yKOzoiw-16">
          <mxGeometry relative="1" as="geometry" />
        </mxCell>
        <mxCell id="Jws28-3J11vp6yKOzoiw-22" value="coe-bridge" style="rounded=0;whiteSpace=wrap;html=1;verticalAlign=middle;fillColor=#e1d5e7;strokeColor=#9673a6;" vertex="1" parent="1">
          <mxGeometry x="229" y="180" width="80" height="30" as="geometry" />
        </mxCell>
        <mxCell id="Jws28-3J11vp6yKOzoiw-23" value="" style="edgeStyle=orthogonalEdgeStyle;rounded=0;orthogonalLoop=1;jettySize=auto;html=1;entryX=0;entryY=0.5;entryDx=0;entryDy=0;endArrow=none;endFill=0;exitX=1;exitY=0.5;exitDx=0;exitDy=0;" edge="1" parent="1" source="Jws28-3J11vp6yKOzoiw-19" target="Jws28-3J11vp6yKOzoiw-22">
          <mxGeometry relative="1" as="geometry">
            <mxPoint x="100" y="210" as="sourcePoint" />
            <mxPoint x="140" y="255" as="targetPoint" />
            <Array as="points">
              <mxPoint x="110" y="215" />
              <mxPoint x="110" y="195" />
            </Array>
          </mxGeometry>
        </mxCell>
        <mxCell id="Jws28-3J11vp6yKOzoiw-24" value="" style="edgeStyle=orthogonalEdgeStyle;rounded=0;orthogonalLoop=1;jettySize=auto;html=1;endArrow=none;endFill=0;entryX=1;entryY=0.5;entryDx=0;entryDy=0;exitX=0;exitY=0.5;exitDx=0;exitDy=0;" edge="1" parent="1" source="Jws28-3J11vp6yKOzoiw-25" target="Jws28-3J11vp6yKOzoiw-20">
          <mxGeometry relative="1" as="geometry">
            <mxPoint x="469.5" y="247.9999999999999" as="sourcePoint" />
            <mxPoint x="210" y="239.0000000000001" as="targetPoint" />
          </mxGeometry>
        </mxCell>
        <mxCell id="Jws28-3J11vp6yKOzoiw-25" value="MetalLB Speaker Pods" style="rounded=0;whiteSpace=wrap;html=1;verticalAlign=middle;fillColor=#ffe6cc;strokeColor=#d79b00;" vertex="1" parent="1">
          <mxGeometry x="471" y="227" width="170" height="30" as="geometry" />
        </mxCell>
        <mxCell id="Jws28-3J11vp6yKOzoiw-26" value="&lt;b&gt;❌ No connection &lt;/b&gt;&lt;br&gt;&amp;nbsp;&lt;span style=&quot;white-space: pre;&quot;&gt;&#x9;&lt;/span&gt;to other Virtual Machines on &lt;span style=&quot;white-space: pre;&quot;&gt;&#x9;&lt;/span&gt;different nodes" style="rounded=0;whiteSpace=wrap;html=1;verticalAlign=middle;fillColor=#fff2cc;strokeColor=#d6b656;align=left;" vertex="1" parent="1">
          <mxGeometry x="630" y="160" width="220" height="60" as="geometry" />
        </mxCell>
      </root>
    </mxGraphModel>
  </diagram>
</mxfile>
